<mxfile host="app.diagrams.net" modified="2021-01-25T12:05:48.151Z" agent="5.0 (Macintosh; Intel Mac OS X 10_15_7) AppleWebKit/537.36 (KHTML, like Gecko) Chrome/87.0.4280.141 Safari/537.36" etag="gcQmsjnPdNq-NQWIN1R_" version="14.1.7" type="github">
  <diagram id="P8Fnn4x0zsphZHBeJ_LP" name="Page-1">
    <mxGraphModel dx="1186" dy="740" grid="1" gridSize="10" guides="1" tooltips="1" connect="1" arrows="1" fold="1" page="1" pageScale="1" pageWidth="827" pageHeight="1169" math="0" shadow="0">
      <root>
        <mxCell id="0" />
        <mxCell id="1" parent="0" />
        <mxCell id="Ys42eeROkn6hJbC0Mekc-5" style="edgeStyle=orthogonalEdgeStyle;rounded=0;orthogonalLoop=1;jettySize=auto;html=1;exitX=1;exitY=0.5;exitDx=0;exitDy=0;entryX=0;entryY=0.5;entryDx=0;entryDy=0;strokeWidth=2;" edge="1" parent="1" source="Ys42eeROkn6hJbC0Mekc-4" target="Ys42eeROkn6hJbC0Mekc-6">
          <mxGeometry relative="1" as="geometry">
            <mxPoint x="270" y="200" as="targetPoint" />
          </mxGeometry>
        </mxCell>
        <mxCell id="Ys42eeROkn6hJbC0Mekc-4" value="&lt;b&gt;&lt;font style=&quot;font-size: 18px&quot;&gt;Order&lt;/font&gt;&lt;/b&gt;" style="rounded=1;whiteSpace=wrap;html=1;fillColor=#e1d5e7;strokeColor=#9673a6;" vertex="1" parent="1">
          <mxGeometry x="90" y="170" width="120" height="60" as="geometry" />
        </mxCell>
        <mxCell id="Ys42eeROkn6hJbC0Mekc-10" style="edgeStyle=orthogonalEdgeStyle;rounded=0;orthogonalLoop=1;jettySize=auto;html=1;exitX=1;exitY=0.5;exitDx=0;exitDy=0;entryX=0;entryY=0.5;entryDx=0;entryDy=0;strokeWidth=2;" edge="1" parent="1" source="Ys42eeROkn6hJbC0Mekc-6" target="Ys42eeROkn6hJbC0Mekc-7">
          <mxGeometry relative="1" as="geometry" />
        </mxCell>
        <mxCell id="Ys42eeROkn6hJbC0Mekc-6" value="&lt;b&gt;&lt;font style=&quot;font-size: 18px&quot;&gt;OrderTable&lt;br&gt;&lt;/font&gt;&lt;/b&gt;" style="rounded=1;whiteSpace=wrap;html=1;fillColor=#e1d5e7;strokeColor=#9673a6;" vertex="1" parent="1">
          <mxGeometry x="270" y="170" width="120" height="60" as="geometry" />
        </mxCell>
        <mxCell id="Ys42eeROkn6hJbC0Mekc-7" value="&lt;b&gt;&lt;font style=&quot;font-size: 18px&quot;&gt;TableGroup&lt;br&gt;&lt;/font&gt;&lt;/b&gt;" style="rounded=1;whiteSpace=wrap;html=1;fillColor=#e1d5e7;strokeColor=#9673a6;" vertex="1" parent="1">
          <mxGeometry x="450" y="170" width="120" height="60" as="geometry" />
        </mxCell>
        <mxCell id="Ys42eeROkn6hJbC0Mekc-13" style="edgeStyle=orthogonalEdgeStyle;rounded=0;orthogonalLoop=1;jettySize=auto;html=1;exitX=0;exitY=0.5;exitDx=0;exitDy=0;entryX=1;entryY=0.5;entryDx=0;entryDy=0;strokeWidth=2;" edge="1" parent="1" source="Ys42eeROkn6hJbC0Mekc-11" target="Ys42eeROkn6hJbC0Mekc-7">
          <mxGeometry relative="1" as="geometry" />
        </mxCell>
        <mxCell id="Ys42eeROkn6hJbC0Mekc-11" value="&lt;b&gt;&lt;font style=&quot;font-size: 18px&quot;&gt;OrderTable&lt;/font&gt;&lt;/b&gt;" style="rounded=1;whiteSpace=wrap;html=1;fillColor=#e1d5e7;strokeColor=#9673a6;" vertex="1" parent="1">
          <mxGeometry x="630" y="170" width="120" height="60" as="geometry" />
        </mxCell>
        <mxCell id="Ys42eeROkn6hJbC0Mekc-19" style="edgeStyle=orthogonalEdgeStyle;rounded=0;orthogonalLoop=1;jettySize=auto;html=1;exitX=0;exitY=0.5;exitDx=0;exitDy=0;entryX=0.75;entryY=1;entryDx=0;entryDy=0;strokeWidth=2;" edge="1" parent="1" source="Ys42eeROkn6hJbC0Mekc-14" target="Ys42eeROkn6hJbC0Mekc-4">
          <mxGeometry relative="1" as="geometry" />
        </mxCell>
        <mxCell id="Ys42eeROkn6hJbC0Mekc-21" value="" style="edgeStyle=orthogonalEdgeStyle;rounded=0;orthogonalLoop=1;jettySize=auto;html=1;strokeWidth=2;" edge="1" parent="1" source="Ys42eeROkn6hJbC0Mekc-14" target="Ys42eeROkn6hJbC0Mekc-20">
          <mxGeometry relative="1" as="geometry" />
        </mxCell>
        <mxCell id="Ys42eeROkn6hJbC0Mekc-14" value="&lt;b&gt;&lt;font style=&quot;font-size: 18px&quot;&gt;OrderLineItem&lt;br&gt;&lt;/font&gt;&lt;/b&gt;" style="rounded=1;whiteSpace=wrap;html=1;fillColor=#d5e8d4;strokeColor=#82b366;" vertex="1" parent="1">
          <mxGeometry x="270" y="270" width="120" height="60" as="geometry" />
        </mxCell>
        <mxCell id="Ys42eeROkn6hJbC0Mekc-23" value="" style="edgeStyle=orthogonalEdgeStyle;rounded=0;orthogonalLoop=1;jettySize=auto;html=1;strokeWidth=2;" edge="1" parent="1" source="Ys42eeROkn6hJbC0Mekc-20" target="Ys42eeROkn6hJbC0Mekc-22">
          <mxGeometry relative="1" as="geometry" />
        </mxCell>
        <mxCell id="Ys42eeROkn6hJbC0Mekc-20" value="&lt;b&gt;&lt;font style=&quot;font-size: 18px&quot;&gt;Menu&lt;br&gt;&lt;/font&gt;&lt;/b&gt;" style="rounded=1;whiteSpace=wrap;html=1;fillColor=#dae8fc;strokeColor=#6c8ebf;" vertex="1" parent="1">
          <mxGeometry x="270" y="370" width="120" height="60" as="geometry" />
        </mxCell>
        <mxCell id="Ys42eeROkn6hJbC0Mekc-22" value="&lt;b&gt;&lt;font style=&quot;font-size: 18px&quot;&gt;MenuGroup&lt;br&gt;&lt;/font&gt;&lt;/b&gt;" style="rounded=1;whiteSpace=wrap;html=1;fillColor=#dae8fc;strokeColor=#6c8ebf;" vertex="1" parent="1">
          <mxGeometry x="450" y="370" width="120" height="60" as="geometry" />
        </mxCell>
        <mxCell id="Ys42eeROkn6hJbC0Mekc-25" value="" style="edgeStyle=orthogonalEdgeStyle;rounded=0;orthogonalLoop=1;jettySize=auto;html=1;strokeWidth=2;" edge="1" parent="1" source="Ys42eeROkn6hJbC0Mekc-24" target="Ys42eeROkn6hJbC0Mekc-20">
          <mxGeometry relative="1" as="geometry" />
        </mxCell>
        <mxCell id="Ys42eeROkn6hJbC0Mekc-26" style="edgeStyle=orthogonalEdgeStyle;rounded=0;orthogonalLoop=1;jettySize=auto;html=1;exitX=0;exitY=0.5;exitDx=0;exitDy=0;entryX=0.5;entryY=1;entryDx=0;entryDy=0;strokeWidth=2;" edge="1" parent="1" source="Ys42eeROkn6hJbC0Mekc-24" target="Ys42eeROkn6hJbC0Mekc-4">
          <mxGeometry relative="1" as="geometry" />
        </mxCell>
        <mxCell id="Ys42eeROkn6hJbC0Mekc-28" value="" style="edgeStyle=orthogonalEdgeStyle;rounded=0;orthogonalLoop=1;jettySize=auto;html=1;strokeWidth=2;" edge="1" parent="1" source="Ys42eeROkn6hJbC0Mekc-24" target="Ys42eeROkn6hJbC0Mekc-27">
          <mxGeometry relative="1" as="geometry" />
        </mxCell>
        <mxCell id="Ys42eeROkn6hJbC0Mekc-24" value="&lt;b&gt;&lt;font style=&quot;font-size: 18px&quot;&gt;MenuProduct&lt;br&gt;&lt;/font&gt;&lt;/b&gt;" style="rounded=1;whiteSpace=wrap;html=1;fillColor=#fff2cc;strokeColor=#d6b656;" vertex="1" parent="1">
          <mxGeometry x="270" y="470" width="120" height="60" as="geometry" />
        </mxCell>
        <mxCell id="Ys42eeROkn6hJbC0Mekc-27" value="&lt;b&gt;&lt;font style=&quot;font-size: 18px&quot;&gt;Product&lt;br&gt;&lt;/font&gt;&lt;/b&gt;" style="rounded=1;whiteSpace=wrap;html=1;fillColor=#fff2cc;strokeColor=#d6b656;" vertex="1" parent="1">
          <mxGeometry x="450" y="470" width="120" height="60" as="geometry" />
        </mxCell>
      </root>
    </mxGraphModel>
  </diagram>
</mxfile>
